<?xml version="1.0" standalone="no"?><!-- Generator: Gravit.io --><svg xmlns="http://www.w3.org/2000/svg" xmlns:xlink="http://www.w3.org/1999/xlink" style="isolation:isolate" viewBox="0 0 600 255" width="600" height="255"><defs><clipPath id="_clipPath_4GBGMenFV79VUBHnHx2tbJTyuNgg88vZ"><rect width="600" height="255"/></clipPath></defs><g clip-path="url(#_clipPath_4GBGMenFV79VUBHnHx2tbJTyuNgg88vZ)"><g id="Group"><rect x="-1" y="-1" width="602" height="257" transform="matrix(1,0,0,1,0,0)" fill="none"/></g><g id="Group"><g id="XMLID_183_"><g id="XMLID_223_"><path d=" M 249.941 140.666 L 249.939 144.652 L 235.259 144.645 C 273.504 187.174 294.664 225.179 285.032 238.193 C 272.27 254.927 212.603 223.282 151.503 167.192 C 90.402 111.368 50.962 52.099 63.724 35.366 C 73.356 22.616 109.447 37.512 152.75 69.681 L 152.757 53.207 C 90.448 9.871 34.384 -7.425 19.212 14.887 C 1.152 41.449 47.565 114.005 123.101 177.01 C 125.169 178.735 127.238 180.435 129.305 182.109 C 202.757 241.589 275.165 268.814 292.731 242.98 C 305.253 224.652 287.222 184.523 249.941 140.666 L 249.941 140.666 Z " fill="rgb(255,255,255)" vector-effect="non-scaling-stroke" stroke-width="2" stroke="rgb(255,255,255)" stroke-linejoin="miter" stroke-linecap="butt" stroke-miterlimit="4"/><path d=" M 229.243 144.642 L 218.895 144.638 C 218.895 144.638 218.895 144.638 218.895 144.638 C 258.586 181.056 284.319 219.594 275.891 230.484 C 267.704 241.374 228.728 220.632 189.037 184.213 C 149.345 147.795 123.613 109.257 131.8 98.367 C 134.93 94.117 142.39 94.652 152.737 98.642 L 152.745 78.98 C 121.47 57.976 96.687 49.463 89.463 59.024 C 78.627 73.367 112.296 124.131 164.736 172.246 C 217.177 220.361 268.423 247.485 279.259 233.143 C 288.409 221.19 266.767 184.248 229.243 144.642 L 229.243 144.642 Z " fill="rgb(255,255,255)" vector-effect="non-scaling-stroke" stroke-width="2" stroke="rgb(255,255,255)" stroke-linejoin="miter" stroke-linecap="butt" stroke-miterlimit="4"/></g><g id="XMLID_184_"><path d=" M 229.245 140.391 L 229.275 72.904 L 212.64 140.384 L 194.11 140.375 L 177.535 73.146 L 177.505 140.368 L 160.178 140.36 L 160.222 42.051 L 187.657 42.064 L 203.748 114.341 L 219.904 42.078 L 246.857 42.09 L 246.813 140.665 L 229.245 140.657 L 229.245 140.391 Z " fill="rgb(255,255,255)" vector-effect="non-scaling-stroke" stroke-width="2" stroke="rgb(255,255,255)" stroke-linejoin="miter" stroke-linecap="butt" stroke-miterlimit="4"/><path d=" M 269.207 109.057 C 269.446 114.636 270.888 118.888 273.533 122.343 C 276.179 125.799 279.547 127.129 283.879 127.131 C 286.767 127.132 289.174 126.336 291.581 125.009 C 293.747 123.681 295.192 121.556 295.915 118.899 L 313.964 118.908 C 311.795 126.346 308.423 132.19 303.127 136.173 C 298.072 140.156 291.814 142.279 284.835 142.276 C 262.695 142.266 251.871 128.976 251.883 102.406 C 251.886 96.827 252.61 91.779 254.056 87.262 C 255.502 82.746 257.67 78.762 260.318 75.575 C 262.967 72.387 266.337 69.732 270.429 68.139 C 274.28 66.547 278.853 65.486 283.907 65.489 C 294.014 65.493 301.954 69.216 307.004 76.393 C 312.295 83.569 314.938 94.464 314.931 109.077 L 269.207 109.057 L 269.207 109.057 Z  M 296.888 96.847 C 296.889 94.19 296.409 91.798 295.688 89.672 C 294.967 87.547 294.005 85.952 292.562 84.623 C 291.118 83.294 289.915 82.23 288.231 81.698 C 286.547 81.166 284.863 80.634 283.178 80.633 C 279.568 80.631 276.68 81.959 274.031 84.88 C 271.383 87.802 269.937 91.521 269.694 96.569 L 296.888 96.581 L 296.888 96.847 L 296.888 96.847 Z " fill="rgb(255,255,255)" vector-effect="non-scaling-stroke" stroke-width="2" stroke="rgb(255,255,255)" stroke-linejoin="miter" stroke-linecap="butt" stroke-miterlimit="4"/><path d=" M 359.942 89.701 C 359.462 86.247 358.26 83.855 356.576 82.26 C 354.652 80.665 352.005 79.867 348.154 79.865 C 344.544 79.864 341.897 80.394 339.972 81.19 C 338.046 82.252 337.323 83.846 337.322 85.971 C 337.321 87.831 338.283 89.426 339.967 90.755 C 341.892 91.819 344.539 93.148 347.907 94.213 C 353.682 96.075 358.494 97.406 362.344 98.736 C 366.194 100.066 369.322 101.396 371.728 102.992 C 374.134 104.587 375.817 106.713 376.779 109.371 C 377.74 111.762 378.22 115.217 378.218 119.468 C 378.215 126.11 375.806 131.423 370.75 135.672 C 365.936 139.921 358.474 142.043 348.848 142.039 C 344.035 142.037 339.704 141.504 335.854 140.173 C 332.004 139.109 328.636 137.247 325.989 135.121 C 323.343 132.994 321.179 130.336 319.736 127.147 C 318.294 123.958 317.573 120.503 317.334 116.783 L 335.383 116.792 C 335.382 120.246 336.584 122.903 338.989 124.764 C 341.395 126.625 344.764 127.689 348.614 127.691 C 351.983 127.693 354.871 127.163 357.038 126.101 C 359.445 125.039 360.649 123.18 360.65 120.788 C 360.651 118.131 359.689 116.271 358.005 114.942 C 356.321 113.878 353.674 112.814 350.065 111.75 C 343.568 110.153 338.515 108.556 334.425 106.695 C 330.575 105.099 327.448 102.972 325.283 101.111 C 323.118 98.984 321.675 96.858 320.954 94.201 C 320.233 91.809 319.753 88.886 319.755 85.963 C 319.756 83.306 320.238 80.65 321.202 77.993 C 322.166 75.602 323.851 73.477 326.018 71.353 C 328.185 69.494 331.073 67.901 334.684 66.84 C 338.294 65.779 342.626 65.249 347.92 65.252 C 357.306 65.256 364.284 67.385 368.613 71.638 C 372.943 75.891 375.347 81.737 375.825 89.177 L 359.942 89.17 L 359.942 89.701 L 359.942 89.701 Z " fill="rgb(255,255,255)" vector-effect="non-scaling-stroke" stroke-width="2" stroke="rgb(255,255,255)" stroke-linejoin="miter" stroke-linecap="butt" stroke-miterlimit="4"/><path d=" M 422.752 89.73 C 422.272 86.275 421.07 83.883 419.386 82.288 C 417.462 80.693 414.815 79.895 410.964 79.893 C 407.355 79.892 404.707 80.422 402.782 81.218 C 400.856 82.28 400.133 83.874 400.132 86 C 400.131 87.859 401.093 89.454 402.777 90.783 C 404.702 91.847 407.349 93.177 410.717 94.241 C 416.492 96.104 421.305 97.434 425.154 98.764 C 429.004 100.095 432.132 101.425 434.538 103.02 C 436.944 104.615 438.627 106.741 439.589 109.399 C 440.55 111.791 441.03 115.245 441.028 119.496 C 441.025 126.139 438.616 131.451 433.561 135.7 C 428.746 139.949 421.284 142.072 411.658 142.067 C 406.845 142.065 402.514 141.532 398.664 140.202 C 394.814 139.137 391.446 137.276 388.8 135.149 C 386.153 133.022 383.989 130.364 382.546 127.175 C 381.104 123.986 380.383 120.532 380.144 116.812 L 398.193 116.82 C 398.192 120.274 399.394 122.931 401.799 124.792 C 404.205 126.653 407.574 127.718 411.424 127.719 C 414.793 127.721 417.681 127.191 419.848 126.129 C 422.255 125.067 423.459 123.208 423.46 120.817 C 423.461 118.16 422.499 116.299 420.815 114.97 C 419.131 113.907 416.485 112.843 412.875 111.778 C 406.378 110.181 401.325 108.585 397.235 106.723 C 393.385 105.127 390.258 103 388.093 101.139 C 385.928 99.012 384.485 96.886 383.764 94.229 C 383.043 91.837 382.563 88.914 382.565 85.992 C 382.566 83.335 383.048 80.678 384.012 78.021 C 384.976 75.631 386.661 73.506 388.828 71.381 C 390.995 69.522 393.883 67.929 397.494 66.868 C 401.104 65.807 405.436 65.277 410.73 65.28 C 420.116 65.284 427.094 67.413 431.423 71.666 C 435.753 75.919 438.157 81.765 438.635 89.205 L 422.752 89.198 L 422.752 89.73 L 422.752 89.73 Z " fill="rgb(255,255,255)" vector-effect="non-scaling-stroke" stroke-width="2" stroke="rgb(255,255,255)" stroke-linejoin="miter" stroke-linecap="butt" stroke-miterlimit="4"/><path d=" M 446.109 58.919 L 446.117 40.851 L 463.685 40.859 L 463.677 58.927 L 446.109 58.919 Z  M 446.072 140.489 L 446.105 67.687 L 463.673 67.695 L 463.64 140.762 L 446.072 140.754 L 446.072 140.489 L 446.072 140.489 Z " fill="rgb(255,255,255)" vector-effect="non-scaling-stroke" stroke-width="2" stroke="rgb(255,255,255)" stroke-linejoin="miter" stroke-linecap="butt" stroke-miterlimit="4"/><path d=" M 486.757 109.154 C 486.995 114.734 488.437 118.986 491.082 122.441 C 493.728 125.896 497.096 127.227 501.428 127.228 C 504.316 127.23 506.723 126.434 509.13 125.106 C 511.296 123.779 512.741 121.654 513.464 118.997 L 531.513 119.005 C 529.344 126.444 525.972 132.288 520.676 136.271 C 515.621 140.254 509.363 142.377 502.384 142.374 C 480.244 142.364 469.421 129.074 469.433 102.504 C 469.435 96.924 470.159 91.876 471.605 87.36 C 473.051 82.844 475.219 78.859 477.867 75.672 C 480.516 72.485 483.886 69.83 487.978 68.237 C 491.829 66.645 496.402 65.584 501.456 65.586 C 511.563 65.591 519.503 69.314 524.554 76.49 C 529.845 83.667 532.487 94.561 532.48 109.175 L 486.757 109.154 L 486.757 109.154 Z  M 514.437 96.945 C 514.438 94.288 513.958 91.896 513.237 89.77 C 512.516 87.644 511.554 86.05 510.111 84.72 C 508.908 83.391 507.465 82.328 505.78 81.796 C 504.096 81.264 502.412 80.732 500.727 80.731 C 497.117 80.729 494.229 82.056 491.58 84.978 C 488.932 87.899 487.486 91.619 487.243 96.667 L 514.437 96.679 L 514.437 96.945 L 514.437 96.945 Z " fill="rgb(255,255,255)" vector-effect="non-scaling-stroke" stroke-width="2" stroke="rgb(255,255,255)" stroke-linejoin="miter" stroke-linecap="butt" stroke-miterlimit="4"/><path d=" M 537.761 140.53 L 537.793 67.728 L 554.158 67.736 L 554.154 76.504 C 555.599 74.113 557.044 71.988 558.729 70.66 C 560.173 69.332 561.858 68.27 563.543 67.474 C 565.228 66.678 566.913 66.147 568.597 66.148 C 570.282 65.883 571.967 65.884 573.892 65.885 L 576.058 65.885 L 576.049 85.547 C 574.365 85.281 572.921 85.014 571.236 85.014 C 560.648 85.009 555.351 90.852 555.345 102.543 L 555.328 140.538 L 537.761 140.53 L 537.761 140.53 Z " fill="rgb(255,255,255)" vector-effect="non-scaling-stroke" stroke-width="2" stroke="rgb(255,255,255)" stroke-linejoin="miter" stroke-linecap="butt" stroke-miterlimit="4"/><path d=" M 328.139 171.522 C 327.9 168.865 326.938 166.739 325.495 165.41 C 324.051 164.081 321.645 163.283 318.517 163.281 C 312.741 163.279 309.852 165.403 309.85 169.92 C 309.849 171.514 310.33 172.843 311.533 173.906 C 312.736 174.97 314.661 175.767 317.307 176.566 C 320.436 177.364 323.082 178.163 325.489 178.695 C 327.654 179.493 329.82 180.291 331.744 181.089 C 332.707 181.621 333.91 182.153 334.872 182.95 C 335.834 183.748 336.556 184.545 337.277 185.609 C 337.999 186.672 338.48 188 338.96 189.595 C 339.441 191.189 339.44 193.049 339.439 195.175 C 339.438 197.832 338.956 199.957 337.992 202.082 C 337.029 203.942 335.584 205.801 334.139 207.129 C 332.454 208.456 330.528 209.518 328.362 210.315 C 326.196 211.111 323.789 211.375 321.383 211.374 C 314.404 211.371 309.11 209.774 305.502 206.85 C 301.893 203.926 299.97 199.408 299.973 193.563 L 309.84 193.567 C 309.838 196.224 310.8 198.35 312.965 199.945 C 314.89 201.54 317.296 202.339 320.424 202.34 C 323.553 202.341 325.96 201.811 327.645 200.483 C 329.33 199.156 330.053 197.562 330.054 195.17 C 330.054 194.373 330.054 193.576 329.814 192.779 C 329.574 191.982 329.333 191.45 328.612 190.919 C 328.131 190.387 327.168 189.855 326.206 189.323 C 325.243 188.791 324.04 188.525 322.356 187.993 C 318.747 187.194 315.378 186.13 312.731 185.332 C 310.084 184.534 307.919 183.47 305.994 182.14 C 304.31 180.811 302.867 179.216 302.146 177.356 C 301.425 175.496 300.945 173.104 300.946 170.182 C 300.947 168.056 301.429 165.931 302.152 164.071 C 302.875 162.212 304.079 160.352 305.523 159.024 C 306.968 157.696 308.894 156.369 311.06 155.573 C 313.226 154.777 315.874 154.246 319.002 154.248 C 321.89 154.249 324.537 154.782 326.943 155.58 C 329.349 156.378 331.274 157.707 332.958 159.037 C 334.641 160.632 335.844 162.492 336.806 164.618 C 337.767 166.744 338.247 169.136 338.246 171.793 L 328.139 171.788 L 328.139 171.522 Z " fill="rgb(255,255,255)" vector-effect="non-scaling-stroke" stroke-width="2" stroke="rgb(255,255,255)" stroke-linejoin="miter" stroke-linecap="butt" stroke-miterlimit="4"/><path d=" M 359.166 210.328 C 356.278 210.327 353.631 209.794 351.466 208.731 C 349.059 207.667 347.135 206.337 345.692 204.477 C 344.008 202.616 342.806 200.49 342.085 197.833 C 341.364 195.176 340.884 192.518 340.886 189.33 C 340.887 186.142 341.369 183.485 342.093 180.828 C 343.056 178.172 344.261 176.046 345.705 174.187 C 347.391 172.328 349.317 171 351.483 169.939 C 353.649 168.877 356.297 168.347 359.185 168.348 C 362.072 168.349 364.479 168.882 366.885 169.946 C 369.05 171.009 370.975 172.339 372.658 174.199 C 374.342 176.06 375.544 178.186 376.265 180.843 C 377.227 183.501 377.466 186.424 377.465 189.346 C 377.463 192.535 376.981 195.457 376.258 197.848 C 375.535 200.239 374.09 202.63 372.645 204.489 C 370.959 206.348 369.034 207.676 366.867 208.738 C 364.701 209.799 362.053 210.33 359.166 210.328 Z  M 359.17 201.56 C 364.945 201.563 367.835 197.579 367.839 189.342 C 367.842 181.371 364.956 177.384 359.18 177.382 C 353.405 177.379 350.515 181.363 350.512 189.334 C 350.508 197.571 353.394 201.558 359.17 201.56 Z " fill="rgb(255,255,255)" vector-effect="non-scaling-stroke" stroke-width="2" stroke="rgb(255,255,255)" stroke-linejoin="miter" stroke-linecap="butt" stroke-miterlimit="4"/><path d=" M 380.584 209.275 L 380.608 155.073 L 389.994 155.077 L 389.97 209.279 L 380.584 209.275 Z " fill="rgb(255,255,255)" vector-effect="non-scaling-stroke" stroke-width="2" stroke="rgb(255,255,255)" stroke-linejoin="miter" stroke-linecap="butt" stroke-miterlimit="4"/><path d=" M 417.163 209.292 L 417.166 203.712 C 414.757 208.228 410.906 210.352 406.093 210.349 C 404.408 210.349 402.724 210.082 401.28 209.284 C 399.837 208.487 398.634 207.689 397.431 206.36 C 396.469 205.031 395.507 203.437 395.027 201.842 C 394.305 199.982 394.066 198.122 394.067 195.996 L 394.078 169.958 L 403.464 169.962 L 403.453 194.406 C 403.45 199.455 405.375 201.847 409.466 201.849 C 411.872 201.85 413.798 201.053 415.002 199.194 C 416.206 197.6 416.929 195.209 416.93 192.818 L 416.94 169.968 L 426.326 169.972 L 426.308 209.561 L 417.163 209.557 L 417.163 209.292 L 417.163 209.292 Z " fill="rgb(255,255,255)" vector-effect="non-scaling-stroke" stroke-width="2" stroke="rgb(255,255,255)" stroke-linejoin="miter" stroke-linecap="butt" stroke-miterlimit="4"/><path d=" M 450.385 183.268 L 459.289 183.272 L 459.284 194.431 C 459.283 196.557 459.042 198.417 458.559 200.542 C 458.077 202.402 457.114 204.261 455.91 205.589 C 454.706 207.183 453.261 208.245 451.336 209.041 C 449.41 209.837 447.244 210.368 444.838 210.367 C 442.191 210.366 440.025 209.833 438.1 209.035 C 436.175 208.237 434.732 206.908 433.529 205.579 C 432.327 204.25 431.365 202.39 430.884 200.53 C 430.404 198.67 430.164 196.544 430.165 194.418 L 430.181 158.815 L 439.566 158.819 L 439.562 169.447 L 459.536 169.456 L 459.532 176.895 L 439.558 176.886 L 439.551 193.094 C 439.55 195.751 440.03 197.611 440.752 198.94 C 441.714 200.269 442.917 201.067 444.842 201.067 C 446.767 201.068 448.211 200.272 448.934 198.944 C 449.897 197.616 450.379 195.756 450.38 193.099 L 450.385 183.268 L 450.385 183.268 Z " fill="rgb(255,255,255)" vector-effect="non-scaling-stroke" stroke-width="2" stroke="rgb(255,255,255)" stroke-linejoin="miter" stroke-linecap="butt" stroke-miterlimit="4"/><path d=" M 462.907 164.94 L 462.911 155.11 L 472.297 155.114 L 472.292 164.945 L 462.907 164.94 Z  M 462.887 209.312 L 462.905 169.723 L 472.29 169.727 L 472.272 209.316 L 462.887 209.312 Z " fill="rgb(255,255,255)" vector-effect="non-scaling-stroke" stroke-width="2" stroke="rgb(255,255,255)" stroke-linejoin="miter" stroke-linecap="butt" stroke-miterlimit="4"/><path d=" M 493.931 210.389 C 491.043 210.388 488.396 209.855 486.23 208.791 C 483.824 207.727 481.9 206.398 480.457 204.537 C 478.773 202.677 477.571 200.551 476.85 197.893 C 476.129 195.236 475.649 192.579 475.651 189.39 C 475.652 186.202 476.134 183.545 476.858 180.889 C 477.821 178.232 479.026 176.107 480.47 174.248 C 482.156 172.389 484.082 171.061 486.248 169.999 C 488.414 168.937 491.062 168.407 493.949 168.408 C 496.837 168.41 499.244 168.942 501.65 170.006 C 503.815 171.07 505.74 172.399 507.423 174.26 C 509.107 176.121 510.309 178.247 511.03 180.904 C 511.992 183.561 512.231 186.484 512.23 189.407 C 512.228 192.595 511.746 195.518 511.023 197.909 C 510.299 200.3 508.855 202.69 507.41 204.55 C 505.724 206.409 503.799 207.736 501.632 208.798 C 499.466 209.86 496.818 210.39 493.931 210.389 L 493.931 210.389 Z  M 493.935 201.621 C 499.71 201.623 502.6 197.639 502.604 189.403 C 502.607 181.432 499.721 177.445 493.945 177.442 C 488.17 177.44 485.28 181.424 485.277 189.395 C 485.273 197.631 488.159 201.618 493.935 201.621 Z " fill="rgb(255,255,255)" vector-effect="non-scaling-stroke" stroke-width="2" stroke="rgb(255,255,255)" stroke-linejoin="miter" stroke-linecap="butt" stroke-miterlimit="4"/><path d=" M 538.211 209.346 L 538.222 185.433 C 538.223 182.245 537.743 180.385 536.781 179.321 C 535.818 178.258 534.375 177.726 531.968 177.725 C 527.155 177.723 524.507 180.644 524.504 186.755 L 524.494 209.606 L 515.108 209.601 L 515.126 169.746 L 524.271 169.751 L 524.268 175.596 C 525.473 173.471 526.917 171.612 528.843 170.55 C 530.769 169.488 533.176 168.692 536.063 168.693 C 537.748 168.694 539.432 168.96 540.876 169.492 C 542.32 170.024 543.523 170.822 544.725 172.151 C 545.928 173.48 546.649 174.543 547.13 176.403 C 547.61 178.263 548.091 179.858 548.09 181.983 L 548.078 209.35 L 538.211 209.346 L 538.211 209.346 Z " fill="rgb(255,255,255)" vector-effect="non-scaling-stroke" stroke-width="2" stroke="rgb(255,255,255)" stroke-linejoin="miter" stroke-linecap="butt" stroke-miterlimit="4"/><path d=" M 573.359 181.729 C 573.119 179.869 572.397 178.54 571.435 177.743 C 570.473 176.945 569.029 176.413 566.863 176.412 C 564.938 176.411 563.494 176.676 562.531 177.207 C 561.568 177.738 561.087 178.535 561.086 179.864 C 561.086 180.926 561.567 181.724 562.529 182.521 C 563.491 183.053 564.935 183.851 566.86 184.383 C 569.988 185.447 572.635 186.246 574.8 186.778 C 576.966 187.576 578.65 188.374 579.853 189.172 C 581.056 189.969 582.018 191.298 582.739 192.627 C 583.22 193.956 583.7 195.816 583.699 198.207 C 583.698 201.661 582.252 204.583 579.604 206.973 C 576.956 209.363 572.864 210.424 567.811 210.422 C 565.164 210.421 562.998 210.154 560.832 209.356 C 558.667 208.824 556.983 207.76 555.539 206.697 C 554.096 205.368 552.893 204.039 552.172 202.444 C 551.451 200.85 550.97 198.724 550.971 196.864 L 560.838 196.868 C 560.837 198.728 561.558 200.323 562.761 201.12 C 564.205 202.184 565.889 202.716 568.055 202.717 C 569.98 202.718 571.424 202.453 572.628 201.922 C 573.831 201.391 574.554 200.329 574.554 199 C 574.555 197.672 574.074 196.609 573.112 195.811 C 572.149 195.279 570.706 194.481 568.781 194.215 C 565.171 193.416 562.525 192.352 560.359 191.554 C 558.194 190.49 556.509 189.692 555.307 188.363 C 554.104 187.3 553.383 185.971 552.902 184.643 C 552.421 183.314 552.181 181.72 552.182 180.125 C 552.183 178.531 552.424 177.203 552.906 175.874 C 553.388 174.546 554.351 173.218 555.555 172.422 C 556.758 171.359 558.443 170.563 560.369 170.032 C 562.294 169.502 564.701 169.237 567.589 169.239 C 572.642 169.241 576.492 170.305 578.898 172.698 C 581.303 175.09 582.505 178.279 582.744 182.265 L 573.358 182.26 L 573.359 181.729 L 573.359 181.729 Z " fill="rgb(255,255,255)" vector-effect="non-scaling-stroke" stroke-width="2" stroke="rgb(255,255,255)" stroke-linejoin="miter" stroke-linecap="butt" stroke-miterlimit="4"/></g></g></g></g></svg>